<mxfile host="app.diagrams.net" modified="2023-08-23T21:18:52.665Z" agent="Mozilla/5.0 (Windows NT 10.0; Win64; x64) AppleWebKit/537.36 (KHTML, like Gecko) Chrome/116.0.0.0 Safari/537.36" etag="_8X6cZ8oRht9xQE1nHBl" version="21.6.6" type="github">
  <diagram name="Page-1" id="ZG4j9Brie0Pip0sXASLi">
    <mxGraphModel dx="2085" dy="1805" grid="1" gridSize="10" guides="1" tooltips="1" connect="1" arrows="1" fold="1" page="1" pageScale="1" pageWidth="850" pageHeight="1100" math="0" shadow="0">
      <root>
        <mxCell id="0" />
        <mxCell id="1" parent="0" />
        <mxCell id="5lOtkhlk1qVCs1m96hsB-20" value="" style="rounded=0;whiteSpace=wrap;html=1;" vertex="1" parent="1">
          <mxGeometry x="-70" y="-30" width="850" height="570" as="geometry" />
        </mxCell>
        <mxCell id="5lOtkhlk1qVCs1m96hsB-5" value="&lt;font style=&quot;font-size: 18px;&quot;&gt;&lt;b&gt;React UI&lt;/b&gt;&lt;/font&gt;" style="whiteSpace=wrap;html=1;aspect=fixed;fillColor=#cce5ff;strokeColor=#36393d;" vertex="1" parent="1">
          <mxGeometry x="210" y="220" width="150" height="150" as="geometry" />
        </mxCell>
        <mxCell id="5lOtkhlk1qVCs1m96hsB-9" value="" style="edgeStyle=orthogonalEdgeStyle;rounded=0;orthogonalLoop=1;jettySize=auto;html=1;" edge="1" parent="1" source="5lOtkhlk1qVCs1m96hsB-6" target="5lOtkhlk1qVCs1m96hsB-5">
          <mxGeometry relative="1" as="geometry" />
        </mxCell>
        <mxCell id="5lOtkhlk1qVCs1m96hsB-6" value="&lt;b&gt;Wagmi&lt;/b&gt;" style="rounded=1;whiteSpace=wrap;html=1;fillColor=#b1ddf0;strokeColor=#10739e;" vertex="1" parent="1">
          <mxGeometry x="210" y="140" width="150" height="60" as="geometry" />
        </mxCell>
        <mxCell id="5lOtkhlk1qVCs1m96hsB-8" value="" style="edgeStyle=orthogonalEdgeStyle;rounded=0;orthogonalLoop=1;jettySize=auto;html=1;" edge="1" parent="1" source="5lOtkhlk1qVCs1m96hsB-7" target="5lOtkhlk1qVCs1m96hsB-5">
          <mxGeometry relative="1" as="geometry" />
        </mxCell>
        <mxCell id="5lOtkhlk1qVCs1m96hsB-18" value="" style="edgeStyle=orthogonalEdgeStyle;rounded=0;orthogonalLoop=1;jettySize=auto;html=1;" edge="1" parent="1" source="5lOtkhlk1qVCs1m96hsB-7" target="5lOtkhlk1qVCs1m96hsB-16">
          <mxGeometry relative="1" as="geometry" />
        </mxCell>
        <mxCell id="5lOtkhlk1qVCs1m96hsB-7" value="&lt;b&gt;Wallet connect&lt;/b&gt;" style="rounded=1;whiteSpace=wrap;html=1;fillColor=#b1ddf0;strokeColor=#10739e;" vertex="1" parent="1">
          <mxGeometry x="210" y="390" width="150" height="60" as="geometry" />
        </mxCell>
        <mxCell id="5lOtkhlk1qVCs1m96hsB-11" value="" style="edgeStyle=orthogonalEdgeStyle;rounded=0;orthogonalLoop=1;jettySize=auto;html=1;" edge="1" parent="1" source="5lOtkhlk1qVCs1m96hsB-10" target="5lOtkhlk1qVCs1m96hsB-5">
          <mxGeometry relative="1" as="geometry" />
        </mxCell>
        <mxCell id="5lOtkhlk1qVCs1m96hsB-10" value="&lt;b&gt;Ethers JS&lt;/b&gt;" style="ellipse;whiteSpace=wrap;html=1;aspect=fixed;fillColor=#e1d5e7;strokeColor=#9673a6;" vertex="1" parent="1">
          <mxGeometry x="430" y="255" width="80" height="80" as="geometry" />
        </mxCell>
        <mxCell id="5lOtkhlk1qVCs1m96hsB-13" value="" style="edgeStyle=orthogonalEdgeStyle;rounded=0;orthogonalLoop=1;jettySize=auto;html=1;" edge="1" parent="1" source="5lOtkhlk1qVCs1m96hsB-12" target="5lOtkhlk1qVCs1m96hsB-10">
          <mxGeometry relative="1" as="geometry" />
        </mxCell>
        <mxCell id="5lOtkhlk1qVCs1m96hsB-12" value="&lt;b&gt;Contract&lt;br&gt;ABI&lt;/b&gt;" style="whiteSpace=wrap;html=1;aspect=fixed;fillColor=#f8cecc;strokeColor=#b85450;" vertex="1" parent="1">
          <mxGeometry x="430" y="140" width="80" height="80" as="geometry" />
        </mxCell>
        <mxCell id="5lOtkhlk1qVCs1m96hsB-15" value="" style="edgeStyle=orthogonalEdgeStyle;rounded=0;orthogonalLoop=1;jettySize=auto;html=1;startArrow=classic;startFill=1;" edge="1" parent="1" source="5lOtkhlk1qVCs1m96hsB-14" target="5lOtkhlk1qVCs1m96hsB-10">
          <mxGeometry relative="1" as="geometry" />
        </mxCell>
        <mxCell id="5lOtkhlk1qVCs1m96hsB-14" value="&lt;font style=&quot;font-size: 18px;&quot;&gt;&lt;b&gt;NETWORK&lt;/b&gt;&lt;/font&gt;" style="whiteSpace=wrap;html=1;aspect=fixed;fillColor=#dae8fc;strokeColor=#6c8ebf;" vertex="1" parent="1">
          <mxGeometry x="580" y="220" width="150" height="150" as="geometry" />
        </mxCell>
        <mxCell id="5lOtkhlk1qVCs1m96hsB-17" value="" style="edgeStyle=orthogonalEdgeStyle;rounded=0;orthogonalLoop=1;jettySize=auto;html=1;" edge="1" parent="1" source="5lOtkhlk1qVCs1m96hsB-16" target="5lOtkhlk1qVCs1m96hsB-10">
          <mxGeometry relative="1" as="geometry" />
        </mxCell>
        <mxCell id="5lOtkhlk1qVCs1m96hsB-16" value="&lt;b&gt;Wallet&amp;nbsp;&lt;br&gt;Provider&lt;/b&gt;" style="whiteSpace=wrap;html=1;aspect=fixed;fillColor=#f8cecc;strokeColor=#b85450;" vertex="1" parent="1">
          <mxGeometry x="430" y="380" width="80" height="80" as="geometry" />
        </mxCell>
        <mxCell id="5lOtkhlk1qVCs1m96hsB-21" value="&lt;h1&gt;UI INTEGRATION&lt;br&gt;COMPONENTS&lt;/h1&gt;&lt;p&gt;The process involves integrating Wagmi for web3 state management, enabling WalletConnect 2.0 for wallet connectivity, interacting with NFT contract ABIs using Ethers.js, and implementing event listeners for dynamic UI updates.&lt;br&gt;&lt;/p&gt;" style="text;html=1;strokeColor=none;fillColor=none;spacing=5;spacingTop=-20;whiteSpace=wrap;overflow=hidden;rounded=0;" vertex="1" parent="1">
          <mxGeometry x="-30" width="310" height="120" as="geometry" />
        </mxCell>
      </root>
    </mxGraphModel>
  </diagram>
</mxfile>
